<svg xmlns="http://www.w3.org/2000/svg" viewBox="0 10 64 45" x="0px" y="0px" style="fill: #ededed">
<title>Food-restaurant-setting-table-eat</title>
<g data-name="Layer 3">
<path d="M32,12A20,20,0,1,0,52,32,20,20,0,0,0,32,12Zm0,38A18,18,0,1,1,50,32,18,18,0,0,1,32,50Z"/>
<path d="M32,18A14,14,0,1,0,46,32,14,14,0,0,0,32,18Zm0,26A12,12,0,1,1,44,32,12,12,0,0,1,32,44Z"/>
<path d="M9,18a1,1,0,0,0-1,1v7H7V19a1,1,0,0,0-2,0v7H4V19a1,1,0,0,0-2,0v9H5V52a1,1,0,0,0,2,0V28h3V19A1,1,0,0,0,9,18Z"/>
<path d="M63,24.5c0-3.58-2.24-6.5-5-6.5s-5,2.92-5,6.5c0,3.15,1.73,5.78,4,6.37A.79.79,0,0,0,57,31V52a1,1,0,0,0,2,0V31a.79.79,0,0,0,0-.13C61.27,30.28,63,27.65,63,24.5ZM58,29c-1.63,0-3-2.06-3-4.5S56.37,20,58,20s3,2.06,3,4.5S59.63,29,58,29Z"/>
</g>
</svg>